<svg width="60" height="60" viewBox="0 0 60 60" fill="none" xmlns="http://www.w3.org/2000/svg">
<rect width="60" height="60" rx="10" fill="#6F2232"/>
<path d="M13.5992 22.0074C13.1018 22.0852 12.6564 22.3529 12.361 22.7516C12.0655 23.1503 11.9443 23.6473 12.0239 24.1334C12.1034 24.6195 12.3773 25.0547 12.7853 25.3434C13.1933 25.6321 13.7019 25.7506 14.1993 25.6729H19.8253L20.1629 26.5892L21.7006 31.171L23.2384 35.7528C23.3885 36.2293 24.0261 36.6691 24.5137 36.6691H37.6411C38.1662 36.6691 38.7663 36.2293 38.9163 35.7528L41.9544 26.5892C42.1044 26.1127 41.8794 25.6729 41.3543 25.6729H24.7012L23.2759 23.0338C23.1241 22.7308 22.8897 22.4747 22.5986 22.2937C22.3074 22.1126 21.9707 22.0135 21.6256 22.0074L14.1242 22.0074C14.012 21.9975 13.899 21.9975 13.7867 22.0074C13.7117 22.003 13.6366 22.003 13.5616 22.0074L13.5992 22.0074ZM25.4513 40.3346C24.4011 40.3346 23.576 41.141 23.576 42.1673C23.576 43.1936 24.4011 44 25.4513 44C26.5015 44 27.3267 43.1936 27.3267 42.1673C27.3267 41.141 26.5015 40.3346 25.4513 40.3346ZM36.7034 40.3346C35.6532 40.3346 34.8281 41.141 34.8281 42.1673C34.8281 43.1936 35.6532 44 36.7034 44C37.7536 44 38.5788 43.1936 38.5788 42.1673C38.5788 41.141 37.7536 40.3346 36.7034 40.3346Z" fill="white"/>
<path d="M29.608 28V30.608H27V32.3466H29.608V34.9546H31.3466V32.3466H33.9546V30.608H31.3466V28H29.608Z" fill="#6F2232"/>
</svg>
