<svg width="34" height="34" viewBox="0 0 34 34" fill="none" xmlns="http://www.w3.org/2000/svg">
<rect x="0.5" y="0.5" width="33" height="33" rx="10.5" fill="white"/>
<rect x="0.5" y="0.5" width="33" height="33" rx="10.5" stroke="#1A1A1D"/>
<path d="M22.8106 12.1037C23.0631 11.8512 23.0631 11.4419 22.8106 11.1894C22.5581 10.9369 22.1488 10.9369 21.8963 11.1894L17 16.0856L12.1037 11.1894C11.8512 10.9369 11.4419 10.9369 11.1894 11.1894C10.9369 11.4419 10.9369 11.8512 11.1894 12.1037L16.0856 17L11.1894 21.8963C10.9369 22.1488 10.9369 22.5581 11.1894 22.8106C11.4419 23.0631 11.8512 23.0631 12.1037 22.8106L17 17.9144L21.8963 22.8106C22.1488 23.0631 22.5581 23.0631 22.8106 22.8106C23.0631 22.5581 23.0631 22.1488 22.8106 21.8963L17.9144 17L22.8106 12.1037Z" fill="#1A1A1D" stroke="#1A1A1D" stroke-linecap="round"/>
</svg>
