<svg width="37" height="37" viewBox="0 0 37 37" fill="none" xmlns="http://www.w3.org/2000/svg">
<rect x="0.5" y="0.5" width="35.205" height="35.205" rx="10.5" fill="white"/>
<rect x="0.5" y="0.5" width="35.205" height="35.205" rx="10.5" stroke="#1A1A1D"/>
<path d="M11 22.535C11 23.275 11.26 23.905 11.78 24.425C12.3 24.945 12.93 25.205 13.67 25.205L22.55 25.205C23.28 25.205 23.905 24.945 24.425 24.425C24.945 23.905 25.205 23.275 25.205 22.535L25.205 18.695L23.435 20.18L23.435 22.535C23.435 22.785 23.35 22.995 23.18 23.165C23.01 23.335 22.8 23.425 22.55 23.435L13.67 23.435C13.42 23.435 13.21 23.345 13.04 23.165C12.87 22.985 12.785 22.775 12.785 22.535L12.785 13.655C12.785 13.415 12.87 13.205 13.04 13.025C13.21 12.845 13.42 12.76 13.67 12.77L18.11 12.77V11L13.67 11C12.93 11 12.3 11.26 11.78 11.78C11.26 12.3 11 12.925 11 13.655L11 22.535ZM13.67 19.88C13.67 20.74 13.84 21.565 14.18 22.355C14.34 21.435 14.69 20.6 15.23 19.85C15.77 19.1 16.44 18.495 17.24 18.035C18.04 17.575 18.92 17.315 19.88 17.255V19.88L25.205 15.44L19.88 11V13.655C19.04 13.655 18.235 13.82 17.465 14.15C16.695 14.48 16.035 14.925 15.485 15.485C14.935 16.045 14.49 16.705 14.15 17.465C13.81 18.225 13.65 19.03 13.67 19.88Z" fill="#1A1A1D"/>
</svg>
