<svg width="16" height="19" viewBox="0 0 16 19" fill="none" xmlns="http://www.w3.org/2000/svg">
<path fill-rule="evenodd" clip-rule="evenodd" d="M6.83152 0.428558C6.44209 0.428558 6.09005 0.662224 5.93663 1.02261L5.21594 2.7156H2.07456C1.35762 2.7156 0.776428 3.30071 0.776428 4.02248V5.65607C0.776428 6.32211 1.27134 6.8718 1.91112 6.95268L3.91777 17.5461C3.97844 17.8516 4.24483 18.0714 4.55423 18.0714H12.5501C12.8714 18.0714 13.1443 17.8348 13.192 17.5149L14.651 6.93986C15.2512 6.82491 15.705 6.29383 15.705 5.65607V4.02248C15.705 3.30071 15.1238 2.7156 14.4069 2.7156H11.2645L10.5438 1.02261C10.3904 0.662224 10.0384 0.428558 9.64888 0.428558H6.83152ZM9.85212 2.7156L9.60349 2.13147C9.50123 1.89121 9.26651 1.73544 9.00689 1.73544H7.47352C7.2139 1.73544 6.97925 1.89121 6.87692 2.13147L6.62829 2.7156H9.85212ZM13.3092 7.24929C13.3319 7.08589 13.2047 6.9402 13.0398 6.9406L3.56827 6.96218C3.3985 6.96259 3.27076 7.11697 3.30215 7.28383L4.98225 16.2115C5.04261 16.5322 5.32276 16.7646 5.64911 16.7646H11.4001C11.7389 16.7646 12.0258 16.5146 12.0723 16.1791L13.3092 7.24929ZM13.7578 5.65607C14.1163 5.65607 14.4069 5.36352 14.4069 5.00263V4.67591C14.4069 4.31503 14.1163 4.02248 13.7578 4.02248H2.72364C2.36516 4.02248 2.07456 4.31503 2.07456 4.67591V5.00263C2.07456 5.36352 2.36516 5.65607 2.72363 5.65607H13.7578Z" fill="#6F2232"/>
</svg>
